<svg width="17" height="17" viewBox="0 0 17 17" fill="none" xmlns="http://www.w3.org/2000/svg">
<path d="M14.5831 4.16699C14.237 4.16699 13.8987 4.06436 13.6109 3.87207C13.3231 3.67977 13.0988 3.40646 12.9663 3.08669C12.8339 2.76692 12.7992 2.41505 12.8668 2.07558C12.9343 1.73612 13.1009 1.4243 13.3457 1.17956C13.5904 0.934814 13.9023 0.768143 14.2417 0.700619C14.5812 0.633095 14.9331 0.66775 15.2528 0.800204C15.5726 0.932657 15.8459 1.15696 16.0382 1.44475C16.2305 1.73253 16.3331 2.07088 16.3331 2.41699C16.3336 2.64694 16.2887 2.87473 16.2009 3.08727C16.1132 3.29982 15.9843 3.49293 15.8217 3.65553C15.6591 3.81813 15.466 3.94702 15.2534 4.03479C15.0409 4.12256 14.8131 4.16749 14.5831 4.16699ZM7 5.33324C7.92302 5.33324 8.82532 5.60695 9.59278 6.11975C10.3602 6.63256 10.9584 7.36142 11.3116 8.21418C11.6649 9.06694 11.7573 10.0053 11.5772 10.9106C11.3971 11.8159 10.9527 12.6474 10.3 13.3001C9.64731 13.9528 8.81575 14.3972 7.91046 14.5773C7.00518 14.7574 6.06683 14.665 5.21407 14.3117C4.36131 13.9585 3.63244 13.3604 3.11964 12.5929C2.60684 11.8254 2.33313 10.9231 2.33313 10.0001C2.33445 8.76279 2.82656 7.57652 3.70149 6.7016C4.57641 5.82668 5.76268 5.33457 7 5.33324ZM7 3.00012C5.61553 3.00012 4.26216 3.41066 3.11101 4.17983C1.95987 4.949 1.06266 6.04225 0.532846 7.32133C0.00303298 8.60042 -0.13559 10.0079 0.134506 11.3658C0.404603 12.7236 1.07129 13.9709 2.05026 14.9499C3.02922 15.9288 4.2765 16.5955 5.63437 16.8656C6.99224 17.1357 8.3997 16.9971 9.67879 16.4673C10.9579 15.9375 12.0511 15.0403 12.8203 13.8891C13.5895 12.738 14 11.3846 14 10.0001C14 8.1436 13.2625 6.36313 11.9497 5.05037C10.637 3.73762 8.85652 3.00012 7 3.00012Z" fill="#F6FFFA"/>
</svg>
